<svg xmlns="http://www.w3.org/2000/svg" xmlns:xlink="http://www.w3.org/1999/xlink" width="706" height="542"><defs><linearGradient id="nav" x1="0" y1="0" x2="0" y2="1"><stop offset="0" stop-color="#7699c0"/><stop offset="1" stop-color="#42678f"/></linearGradient><linearGradient id="mnav" x1="0" y1="0" x2="0" y2="1"><stop offset="0" stop-color="#f7f7f7"/><stop offset="1" stop-color="#efefef"/></linearGradient></defs><rect width="706" height="542" fill="#e9edf2"/><text x="16" y="34" font-family="Helvetica" font-size="13" font-weight="bold" fill="#8b97a5" letter-spacing="0.6">HOW IT WORKS TODAY</text><text x="370" y="34" font-family="Helvetica" font-size="13" font-weight="bold" fill="#a8741d" letter-spacing="0.6">WHAT WE CAN DO</text><rect x="15" y="45" width="322" height="482" fill="#000" rx="3"/><rect x="369" y="45" width="322" height="482" fill="#000" rx="3"/><rect x="16" y="46" width="320" height="480" fill="#fff"/><rect x="16" y="46" width="320" height="20" fill="#fff"/><text x="28" y="60" font-family="Helvetica" font-size="11" fill="#000">9:41</text><rect x="16" y="66" width="320" height="44" fill="url(#mnav)"/><text x="176" y="94" font-family="Helvetica" font-size="17" font-weight="bold" fill="#000" text-anchor="middle">Confirm</text><rect x="16" y="110" width="320" height="1" fill="#c8c7cc"/><rect x="16" y="111" width="320" height="415" fill="#f2f2f7"/><rect x="16" y="126" width="320" height="72" fill="#fff"/><text x="32" y="154" font-family="Helvetica" font-size="16" font-weight="bold" fill="#000" text-anchor="start">Telegram Premium</text><text x="32" y="176" font-family="Helvetica" font-size="13" font-weight="normal" fill="#8e8e93" text-anchor="start">3 months</text><text x="320" y="164" font-family="Helvetica" font-size="18" font-weight="bold" fill="#000" text-anchor="end">$12.99</text><rect x="16" y="214" width="320" height="56" fill="#fff"/><rect x="32" y="231" width="34" height="22" fill="#1a1f71" rx="3"/><text x="49" y="246" font-family="Helvetica" font-size="9" font-weight="bold" fill="#fff" text-anchor="middle">VISA</text><text x="76" y="248" font-family="Helvetica" font-size="15" font-weight="normal" fill="#000" text-anchor="start">•••• 4242</text><rect x="32" y="296" width="288" height="50" fill="#000" rx="9"/><text x="176" y="321" font-family="Helvetica" font-size="19" font-weight="bold" fill="#fff" text-anchor="middle"> Pay</text><text x="176" y="366" font-family="Helvetica" font-size="12" font-weight="normal" fill="#8e8e93" text-anchor="middle">Double-click to confirm</text><rect x="370" y="46" width="320" height="480" fill="#e5e8ec"/><rect x="370" y="46" width="320" height="20" fill="#000"/><text x="382" y="60" font-family="Helvetica" font-size="11" font-weight="bold" fill="#fff">9:41</text><rect x="370" y="66" width="320" height="44" fill="url(#nav)"/><image x="376" y="73" width="62" height="30" xlink:href="ASSET:BackButton"/><text x="411" y="92" font-family="Helvetica" font-size="12" fill="#fff" text-anchor="middle">Back</text><text x="530" y="94" font-family="Helvetica" font-size="19" font-weight="bold" fill="#fff" text-anchor="middle">Telegram Premium</text><rect x="370" y="110" width="320" height="416" fill="#e5e8ec"/><text x="384" y="140" font-family="Helvetica" font-size="12" font-weight="bold" fill="#5d708f" text-anchor="start">STATUS</text><rect x="378" y="148" width="304" height="44" fill="#fff" stroke="#d6dae0" stroke-width="1"/><text x="390" y="175" font-family="Helvetica" font-size="15" font-weight="normal" fill="#111" text-anchor="start">Premium</text><text x="670" y="175" font-family="Helvetica" font-size="15" font-weight="normal" fill="#8b97a5" text-anchor="end">not active</text><text x="384" y="222" font-family="Helvetica" font-size="12" font-weight="bold" fill="#5d708f" text-anchor="start">WHAT IT CHANGES</text><rect x="378" y="230" width="304" height="44" fill="#fff" stroke="#d6dae0" stroke-width="1"/><text x="390" y="257" font-family="Helvetica" font-size="15" font-weight="normal" fill="#111" text-anchor="start">Pinned chats</text><text x="628" y="257" font-family="Helvetica" font-size="15" font-weight="normal" fill="#8b97a5" text-anchor="end">5</text><text x="640" y="257" font-family="Helvetica" font-size="13" font-weight="normal" fill="#b7bec7" text-anchor="start">→</text><text x="670" y="257" font-family="Helvetica" font-size="15" font-weight="bold" fill="#2f6ba8" text-anchor="end">10</text><rect x="378" y="274" width="304" height="44" fill="#fff" stroke="#d6dae0" stroke-width="1"/><text x="390" y="301" font-family="Helvetica" font-size="15" font-weight="normal" fill="#111" text-anchor="start">Folders</text><text x="628" y="301" font-family="Helvetica" font-size="15" font-weight="normal" fill="#8b97a5" text-anchor="end">10</text><text x="640" y="301" font-family="Helvetica" font-size="13" font-weight="normal" fill="#b7bec7" text-anchor="start">→</text><text x="670" y="301" font-family="Helvetica" font-size="15" font-weight="bold" fill="#2f6ba8" text-anchor="end">20</text><rect x="378" y="318" width="304" height="44" fill="#fff" stroke="#d6dae0" stroke-width="1"/><text x="390" y="345" font-family="Helvetica" font-size="15" font-weight="normal" fill="#111" text-anchor="start">Upload size</text><text x="628" y="345" font-family="Helvetica" font-size="15" font-weight="normal" fill="#8b97a5" text-anchor="end">2 GB</text><text x="640" y="345" font-family="Helvetica" font-size="13" font-weight="normal" fill="#b7bec7" text-anchor="start">→</text><text x="670" y="345" font-family="Helvetica" font-size="15" font-weight="bold" fill="#2f6ba8" text-anchor="end">4 GB</text><rect x="378" y="376" width="304" height="95" fill="#fdf6e6" stroke="#a8741d"/><rect x="378" y="376" width="3" height="95" fill="#a8741d"/><text x="389" y="393" font-family="Helvetica" font-size="11" font-weight="normal" fill="#6b4a10" text-anchor="start">Informational only. There is no Buy button:</text><text x="389" y="408" font-family="Helvetica" font-size="11" font-weight="normal" fill="#6b4a10" text-anchor="start">in-app purchase needs a StoreKit stack and a</text><text x="389" y="423" font-family="Helvetica" font-size="11" font-weight="normal" fill="#6b4a10" text-anchor="start">developer account this build does not have,</text><text x="389" y="438" font-family="Helvetica" font-size="11" font-weight="normal" fill="#6b4a10" text-anchor="start">and card payment needs a modern web view.</text><text x="389" y="453" font-family="Helvetica" font-size="11" font-weight="normal" fill="#6b4a10" text-anchor="start">Subscribe elsewhere; the status shows here.</text></svg>