<svg xmlns="http://www.w3.org/2000/svg" xmlns:xlink="http://www.w3.org/1999/xlink" width="706" height="542"><defs><linearGradient id="nav" x1="0" y1="0" x2="0" y2="1"><stop offset="0" stop-color="#7699c0"/><stop offset="1" stop-color="#42678f"/></linearGradient><linearGradient id="mnav" x1="0" y1="0" x2="0" y2="1"><stop offset="0" stop-color="#f7f7f7"/><stop offset="1" stop-color="#efefef"/></linearGradient></defs><rect width="706" height="542" fill="#e9edf2"/><text x="16" y="34" font-family="Helvetica" font-size="13" font-weight="bold" fill="#8b97a5" letter-spacing="0.6">HOW IT WORKS TODAY</text><text x="370" y="34" font-family="Helvetica" font-size="13" font-weight="bold" fill="#a8741d" letter-spacing="0.6">WHAT WE CAN DO</text><rect x="15" y="45" width="322" height="482" fill="#000" rx="3"/><rect x="369" y="45" width="322" height="482" fill="#000" rx="3"/><rect x="16" y="46" width="320" height="480" fill="#fff"/><rect x="16" y="46" width="320" height="20" fill="#fff"/><text x="28" y="60" font-family="Helvetica" font-size="11" fill="#000">9:41</text><rect x="16" y="66" width="320" height="44" fill="url(#mnav)"/><text x="176" y="94" font-family="Helvetica" font-size="17" font-weight="bold" fill="#000" text-anchor="middle">Stickers</text><rect x="16" y="110" width="320" height="1" fill="#c8c7cc"/><circle cx="66" cy="166" r="28" fill="hsl(0,62%,72%)"/><circle cx="57" cy="160" r="4" fill="#3a3a3a"/><circle cx="75" cy="160" r="4" fill="#3a3a3a"/><path d="M55,172 Q66,182 77,172" stroke="#3a3a3a" stroke-width="2.5" fill="none"/><circle cx="138" cy="166" r="28" fill="hsl(23,62%,72%)"/><circle cx="129" cy="160" r="4" fill="#3a3a3a"/><circle cx="147" cy="160" r="4" fill="#3a3a3a"/><path d="M127,172 Q138,182 149,172" stroke="#3a3a3a" stroke-width="2.5" fill="none"/><circle cx="210" cy="166" r="28" fill="hsl(46,62%,72%)"/><circle cx="201" cy="160" r="4" fill="#3a3a3a"/><circle cx="219" cy="160" r="4" fill="#3a3a3a"/><path d="M199,172 Q210,182 221,172" stroke="#3a3a3a" stroke-width="2.5" fill="none"/><circle cx="282" cy="166" r="28" fill="hsl(69,62%,72%)"/><circle cx="273" cy="160" r="4" fill="#3a3a3a"/><circle cx="291" cy="160" r="4" fill="#3a3a3a"/><path d="M271,172 Q282,182 293,172" stroke="#3a3a3a" stroke-width="2.5" fill="none"/><circle cx="66" cy="242" r="28" fill="hsl(92,62%,72%)"/><circle cx="57" cy="236" r="4" fill="#3a3a3a"/><circle cx="75" cy="236" r="4" fill="#3a3a3a"/><path d="M55,248 Q66,258 77,248" stroke="#3a3a3a" stroke-width="2.5" fill="none"/><circle cx="138" cy="242" r="28" fill="hsl(115,62%,72%)"/><circle cx="129" cy="236" r="4" fill="#3a3a3a"/><circle cx="147" cy="236" r="4" fill="#3a3a3a"/><path d="M127,248 Q138,258 149,248" stroke="#3a3a3a" stroke-width="2.5" fill="none"/><circle cx="210" cy="242" r="28" fill="hsl(138,62%,72%)"/><circle cx="201" cy="236" r="4" fill="#3a3a3a"/><circle cx="219" cy="236" r="4" fill="#3a3a3a"/><path d="M199,248 Q210,258 221,248" stroke="#3a3a3a" stroke-width="2.5" fill="none"/><circle cx="282" cy="242" r="28" fill="hsl(161,62%,72%)"/><circle cx="273" cy="236" r="4" fill="#3a3a3a"/><circle cx="291" cy="236" r="4" fill="#3a3a3a"/><path d="M271,248 Q282,258 293,248" stroke="#3a3a3a" stroke-width="2.5" fill="none"/><circle cx="66" cy="318" r="28" fill="hsl(184,62%,72%)"/><circle cx="57" cy="312" r="4" fill="#3a3a3a"/><circle cx="75" cy="312" r="4" fill="#3a3a3a"/><path d="M55,324 Q66,334 77,324" stroke="#3a3a3a" stroke-width="2.5" fill="none"/><circle cx="138" cy="318" r="28" fill="hsl(207,62%,72%)"/><circle cx="129" cy="312" r="4" fill="#3a3a3a"/><circle cx="147" cy="312" r="4" fill="#3a3a3a"/><path d="M127,324 Q138,334 149,324" stroke="#3a3a3a" stroke-width="2.5" fill="none"/><circle cx="210" cy="318" r="28" fill="hsl(230,62%,72%)"/><circle cx="201" cy="312" r="4" fill="#3a3a3a"/><circle cx="219" cy="312" r="4" fill="#3a3a3a"/><path d="M199,324 Q210,334 221,324" stroke="#3a3a3a" stroke-width="2.5" fill="none"/><circle cx="282" cy="318" r="28" fill="hsl(253,62%,72%)"/><circle cx="273" cy="312" r="4" fill="#3a3a3a"/><circle cx="291" cy="312" r="4" fill="#3a3a3a"/><path d="M271,324 Q282,334 293,324" stroke="#3a3a3a" stroke-width="2.5" fill="none"/><circle cx="66" cy="394" r="28" fill="hsl(276,62%,72%)"/><circle cx="57" cy="388" r="4" fill="#3a3a3a"/><circle cx="75" cy="388" r="4" fill="#3a3a3a"/><path d="M55,400 Q66,410 77,400" stroke="#3a3a3a" stroke-width="2.5" fill="none"/><circle cx="138" cy="394" r="28" fill="hsl(299,62%,72%)"/><circle cx="129" cy="388" r="4" fill="#3a3a3a"/><circle cx="147" cy="388" r="4" fill="#3a3a3a"/><path d="M127,400 Q138,410 149,400" stroke="#3a3a3a" stroke-width="2.5" fill="none"/><circle cx="210" cy="394" r="28" fill="hsl(322,62%,72%)"/><circle cx="201" cy="388" r="4" fill="#3a3a3a"/><circle cx="219" cy="388" r="4" fill="#3a3a3a"/><path d="M199,400 Q210,410 221,400" stroke="#3a3a3a" stroke-width="2.5" fill="none"/><circle cx="282" cy="394" r="28" fill="hsl(345,62%,72%)"/><circle cx="273" cy="388" r="4" fill="#3a3a3a"/><circle cx="291" cy="388" r="4" fill="#3a3a3a"/><path d="M271,400 Q282,410 293,400" stroke="#3a3a3a" stroke-width="2.5" fill="none"/><rect x="16" y="474" width="320" height="52" fill="rgba(255,255,255,.94)"/><text x="176" y="506" font-family="Helvetica" font-size="12" font-weight="normal" fill="#8e8e93" text-anchor="middle">every tile animating at 60fps</text><rect x="370" y="46" width="320" height="480" fill="#e5e8ec"/><rect x="370" y="46" width="320" height="20" fill="#000"/><text x="382" y="60" font-family="Helvetica" font-size="11" font-weight="bold" fill="#fff">9:41</text><rect x="370" y="66" width="320" height="44" fill="url(#nav)"/><image x="376" y="73" width="62" height="30" xlink:href="ASSET:BackButton"/><text x="411" y="92" font-family="Helvetica" font-size="12" fill="#fff" text-anchor="middle">Back</text><text x="530" y="94" font-family="Helvetica" font-size="19" font-weight="bold" fill="#fff" text-anchor="middle">Stickers</text><rect x="370" y="110" width="320" height="416" fill="#dfe3d8"/><image x="370" y="118" width="320" height="80" xlink:href="ASSET:Cell102" preserveAspectRatio="none"/><image x="370" y="200" width="320" height="80" xlink:href="ASSET:Cell102" preserveAspectRatio="none"/><circle cx="412" cy="158" r="30" fill="hsl(0,62%,72%)"/><circle cx="402" cy="152" r="4" fill="#3a3a3a"/><circle cx="422" cy="152" r="4" fill="#3a3a3a"/><path d="M400,164 Q412,174 424,164" stroke="#3a3a3a" stroke-width="2.5" fill="none"/><circle cx="490" cy="158" r="30" fill="hsl(23,62%,72%)"/><circle cx="480" cy="152" r="4" fill="#3a3a3a"/><circle cx="500" cy="152" r="4" fill="#3a3a3a"/><path d="M478,164 Q490,174 502,164" stroke="#3a3a3a" stroke-width="2.5" fill="none"/><circle cx="568" cy="158" r="30" fill="hsl(46,62%,72%)"/><circle cx="558" cy="152" r="4" fill="#3a3a3a"/><circle cx="578" cy="152" r="4" fill="#3a3a3a"/><path d="M556,164 Q568,174 580,164" stroke="#3a3a3a" stroke-width="2.5" fill="none"/><circle cx="646" cy="158" r="30" fill="hsl(69,62%,72%)"/><circle cx="636" cy="152" r="4" fill="#3a3a3a"/><circle cx="656" cy="152" r="4" fill="#3a3a3a"/><path d="M634,164 Q646,174 658,164" stroke="#3a3a3a" stroke-width="2.5" fill="none"/><circle cx="412" cy="240" r="30" fill="hsl(92,62%,72%)"/><circle cx="402" cy="234" r="4" fill="#3a3a3a"/><circle cx="422" cy="234" r="4" fill="#3a3a3a"/><path d="M400,246 Q412,256 424,246" stroke="#3a3a3a" stroke-width="2.5" fill="none"/><circle cx="490" cy="240" r="30" fill="hsl(115,62%,72%)"/><circle cx="480" cy="234" r="4" fill="#3a3a3a"/><circle cx="500" cy="234" r="4" fill="#3a3a3a"/><path d="M478,246 Q490,256 502,246" stroke="#3a3a3a" stroke-width="2.5" fill="none"/><circle cx="568" cy="240" r="30" fill="hsl(138,62%,72%)"/><circle cx="558" cy="234" r="4" fill="#3a3a3a"/><circle cx="578" cy="234" r="4" fill="#3a3a3a"/><path d="M556,246 Q568,256 580,246" stroke="#3a3a3a" stroke-width="2.5" fill="none"/><circle cx="646" cy="240" r="30" fill="hsl(161,62%,72%)"/><circle cx="636" cy="234" r="4" fill="#3a3a3a"/><circle cx="656" cy="234" r="4" fill="#3a3a3a"/><path d="M634,246 Q646,256 658,246" stroke="#3a3a3a" stroke-width="2.5" fill="none"/><circle cx="412" cy="158" r="30" fill="none" stroke="#a8741d" stroke-width="2"/><text x="412" y="196" font-family="Helvetica" font-size="10" font-weight="bold" fill="#a8741d" text-anchor="middle">held</text><rect x="380" y="296" width="300" height="95" fill="#fdf6e6" stroke="#a8741d"/><rect x="380" y="296" width="3" height="95" fill="#a8741d"/><text x="391" y="313" font-family="Helvetica" font-size="11" font-weight="normal" fill="#6b4a10" text-anchor="start">Every sticker is a still first frame.</text><text x="391" y="328" font-family="Helvetica" font-size="11" font-weight="normal" fill="#6b4a10" text-anchor="start">One animates at a time, and only while held:</text><text x="391" y="343" font-family="Helvetica" font-size="11" font-weight="normal" fill="#6b4a10" text-anchor="start">a single A5 core cannot decode sixteen Lottie</text><text x="391" y="358" font-family="Helvetica" font-size="11" font-weight="normal" fill="#6b4a10" text-anchor="start">timelines at once, and sixteen live ones would</text><text x="391" y="373" font-family="Helvetica" font-size="11" font-weight="normal" fill="#6b4a10" text-anchor="start">exhaust the 512MB budget on their own.</text></svg>