<svg xmlns="http://www.w3.org/2000/svg" xmlns:xlink="http://www.w3.org/1999/xlink" width="706" height="542"><defs><linearGradient id="nav" x1="0" y1="0" x2="0" y2="1"><stop offset="0" stop-color="#7699c0"/><stop offset="1" stop-color="#42678f"/></linearGradient><linearGradient id="mnav" x1="0" y1="0" x2="0" y2="1"><stop offset="0" stop-color="#f7f7f7"/><stop offset="1" stop-color="#efefef"/></linearGradient></defs><rect width="706" height="542" fill="#e9edf2"/><text x="16" y="34" font-family="Helvetica" font-size="13" font-weight="bold" fill="#8b97a5" letter-spacing="0.6">HOW IT WORKS TODAY</text><text x="370" y="34" font-family="Helvetica" font-size="13" font-weight="bold" fill="#a8741d" letter-spacing="0.6">WHAT WE CAN DO</text><rect x="15" y="45" width="322" height="482" fill="#000" rx="3"/><rect x="369" y="45" width="322" height="482" fill="#000" rx="3"/><rect x="16" y="46" width="320" height="480" fill="#fff"/><rect x="16" y="46" width="320" height="20" fill="#fff"/><text x="28" y="60" font-family="Helvetica" font-size="11" fill="#000">9:41</text><rect x="16" y="66" width="320" height="44" fill="url(#mnav)"/><text x="176" y="94" font-family="Helvetica" font-size="17" font-weight="bold" fill="#000" text-anchor="middle">Statistics</text><rect x="16" y="110" width="320" height="1" fill="#c8c7cc"/><text x="32" y="142" font-family="Helvetica" font-size="13" font-weight="bold" fill="#8e8e93" text-anchor="start">Followers</text><text x="32" y="164" font-family="Helvetica" font-size="26" font-weight="bold" fill="#000" text-anchor="start">128 402</text><text x="136" y="164" font-family="Helvetica" font-size="12" font-weight="normal" fill="#34c759" text-anchor="start">+2 190 this week</text><path d="M32,266 L72,254 L112,258 L152,236 L192,240 L232,222 L272,226 L320,204 L320,276 L32,276 Z" fill="#e8f2fd"/><path d="M32,266 L72,254 L112,258 L152,236 L192,240 L232,222 L272,226 L320,204" fill="none" stroke="#007aff" stroke-width="2"/><circle cx="32" cy="266" r="2.5" fill="#007aff"/><circle cx="72" cy="254" r="2.5" fill="#007aff"/><circle cx="112" cy="258" r="2.5" fill="#007aff"/><circle cx="152" cy="236" r="2.5" fill="#007aff"/><circle cx="192" cy="240" r="2.5" fill="#007aff"/><circle cx="232" cy="222" r="2.5" fill="#007aff"/><circle cx="272" cy="226" r="2.5" fill="#007aff"/><circle cx="320" cy="204" r="2.5" fill="#007aff"/><rect x="32" y="290" width="288" height="26" fill="#f2f2f7" rx="5"/><rect x="106" y="290" width="150" height="26" fill="#007aff" rx="5"/><circle cx="106" cy="303" r="7" fill="#fff" stroke="#007aff" stroke-width="2"/><circle cx="256" cy="303" r="7" fill="#fff" stroke="#007aff" stroke-width="2"/><text x="176" y="334" font-family="Helvetica" font-size="11" font-weight="normal" fill="#8e8e93" text-anchor="middle">drag either handle to zoom the range</text><rect x="166" y="142" width="118" height="46" fill="#fff" stroke="#d1d1d6" rx="6"/><text x="176" y="160" font-family="Helvetica" font-size="11" font-weight="bold" fill="#8e8e93" text-anchor="start">14 Aug</text><text x="176" y="178" font-family="Helvetica" font-size="15" font-weight="bold" fill="#000" text-anchor="start">126 212</text><text x="176" y="376" font-family="Helvetica" font-size="11" font-weight="normal" fill="#8e8e93" text-anchor="start">tap any point for a tooltip</text><text x="176" y="396" font-family="Helvetica" font-size="11" font-weight="normal" fill="#8e8e93" text-anchor="middle">pinch to zoom, two-finger pan</text><rect x="370" y="46" width="320" height="480" fill="#e5e8ec"/><rect x="370" y="46" width="320" height="20" fill="#000"/><text x="382" y="60" font-family="Helvetica" font-size="11" font-weight="bold" fill="#fff">9:41</text><rect x="370" y="66" width="320" height="44" fill="url(#nav)"/><image x="376" y="73" width="62" height="30" xlink:href="ASSET:BackButton"/><text x="411" y="92" font-family="Helvetica" font-size="12" fill="#fff" text-anchor="middle">Back</text><text x="530" y="94" font-family="Helvetica" font-size="19" font-weight="bold" fill="#fff" text-anchor="middle">Statistics</text><text x="384" y="136" font-family="Helvetica" font-size="12" font-weight="bold" fill="#5d708f" text-anchor="start">GROWTH</text><rect x="378" y="144" width="304" height="44" fill="#fff" stroke="#d6dae0" stroke-width="1"/><text x="390" y="171" font-family="Helvetica" font-size="15" font-weight="normal" fill="#111" text-anchor="start">Followers</text><text x="670" y="171" font-family="Helvetica" font-size="15" font-weight="bold" fill="#111" text-anchor="end">128 402</text><rect x="378" y="188" width="304" height="44" fill="#fff" stroke="#d6dae0" stroke-width="1"/><text x="390" y="215" font-family="Helvetica" font-size="15" font-weight="normal" fill="#111" text-anchor="start">This week</text><text x="670" y="215" font-family="Helvetica" font-size="15" font-weight="bold" fill="#3aa03a" text-anchor="end">+2 190</text><rect x="378" y="232" width="304" height="44" fill="#fff" stroke="#d6dae0" stroke-width="1"/><text x="390" y="259" font-family="Helvetica" font-size="15" font-weight="normal" fill="#111" text-anchor="start">This month</text><text x="670" y="259" font-family="Helvetica" font-size="15" font-weight="bold" fill="#3aa03a" text-anchor="end">+8 940</text><rect x="378" y="276" width="304" height="44" fill="#fff" stroke="#d6dae0" stroke-width="1"/><text x="390" y="303" font-family="Helvetica" font-size="15" font-weight="normal" fill="#111" text-anchor="start">Notifications</text><text x="670" y="303" font-family="Helvetica" font-size="15" font-weight="bold" fill="#111" text-anchor="end">81%</text><text x="384" y="338" font-family="Helvetica" font-size="12" font-weight="bold" fill="#5d708f" text-anchor="start">LAST 7 DAYS</text><rect x="378" y="346" width="304" height="96" fill="#fff" stroke="#d6dae0" stroke-width="1"/><rect x="396" y="384" width="22" height="42" fill="#5d8ec4"/><text x="407" y="438" font-family="Helvetica" font-size="10" font-weight="normal" fill="#8b97a5" text-anchor="middle">M</text><rect x="436" y="371" width="22" height="55" fill="#5d8ec4"/><text x="447" y="438" font-family="Helvetica" font-size="10" font-weight="normal" fill="#8b97a5" text-anchor="middle">T</text><rect x="476" y="378" width="22" height="48" fill="#5d8ec4"/><text x="487" y="438" font-family="Helvetica" font-size="10" font-weight="normal" fill="#8b97a5" text-anchor="middle">W</text><rect x="516" y="356" width="22" height="70" fill="#5d8ec4"/><text x="527" y="438" font-family="Helvetica" font-size="10" font-weight="normal" fill="#8b97a5" text-anchor="middle">T</text><rect x="556" y="364" width="22" height="62" fill="#5d8ec4"/><text x="567" y="438" font-family="Helvetica" font-size="10" font-weight="normal" fill="#8b97a5" text-anchor="middle">F</text><rect x="596" y="338" width="22" height="88" fill="#5d8ec4"/><text x="607" y="438" font-family="Helvetica" font-size="10" font-weight="normal" fill="#8b97a5" text-anchor="middle">S</text><rect x="636" y="350" width="22" height="76" fill="#5d8ec4"/><text x="647" y="438" font-family="Helvetica" font-size="10" font-weight="normal" fill="#8b97a5" text-anchor="middle">S</text><rect x="378" y="456" width="304" height="65" fill="#fdf6e6" stroke="#a8741d"/><rect x="378" y="456" width="3" height="65" fill="#a8741d"/><text x="389" y="473" font-family="Helvetica" font-size="11" font-weight="normal" fill="#6b4a10" text-anchor="start">A drawn bar chart, redrawn only when the data</text><text x="389" y="488" font-family="Helvetica" font-size="11" font-weight="normal" fill="#6b4a10" text-anchor="start">changes. No zoom, no range handles, no tooltips:</text><text x="389" y="503" font-family="Helvetica" font-size="11" font-weight="normal" fill="#6b4a10" text-anchor="start">those need continuous path re-tessellation.</text></svg>