<svg xmlns="http://www.w3.org/2000/svg" xmlns:xlink="http://www.w3.org/1999/xlink" width="320" height="480">
  <defs>
    <linearGradient id="nav" x1="0" y1="0" x2="0" y2="1">
      <stop offset="0" stop-color="#7699c0"/>
      <stop offset="1" stop-color="#42678f"/>
    </linearGradient>
  </defs>

  <rect x="0" y="0" width="320" height="480" fill="#ffffff"/>

  <!-- 44pt status banner (the ruled "new top-aligned banner") -->
  <rect x="0" y="64" width="320" height="44" fill="#e4e9f0"/>
  <rect x="0" y="107" width="320" height="1" fill="#d5dee5"/>
  <image x="10" y="75" width="27" height="21" xlink:href="ASSET:DialogListUnreadBadge"/>
  <text x="23.5" y="91" font-family="Helvetica" font-size="11" font-weight="bold" fill="#8091a6" text-anchor="middle">&#9733;</text>
  <text x="23.5" y="90" font-family="Helvetica" font-size="11" font-weight="bold" fill="#ffffff" text-anchor="middle">&#9733;</text>
  <text x="47" y="85" font-family="Helvetica" font-size="14" font-weight="bold" fill="#111111">Premium is off on this account</text>
  <text x="47" y="101" font-family="Helvetica" font-size="13" fill="#536c8c">It cannot be bought here &#8212; only gifted</text>

  <!-- section: Limits -->
  <image x="0" y="108" width="320" height="26" xlink:href="ASSET:CategoryDividerFirst"/>
  <text x="10" y="126" font-family="Helvetica" font-size="14" fill="#ffffff" fill-opacity="0.3">Limits</text>
  <text x="10" y="125" font-family="Helvetica" font-size="14" fill="#697487">Limits</text>
  <text x="248" y="125" font-family="Helvetica" font-size="11" font-weight="bold" fill="#697487" text-anchor="end">NOW</text>
  <text x="310" y="125" font-family="Helvetica" font-size="11" font-weight="bold" fill="#697487" text-anchor="end">PREMIUM</text>

  <g font-family="Helvetica" font-size="16" fill="#111111">
    <text x="10" y="161">Pinned chats</text>
    <text x="10" y="205">Chat folders</text>
    <text x="10" y="249">Caption length</text>
    <text x="10" y="293">Bio length</text>
  </g>
  <g font-family="Helvetica" font-size="15" fill="#888888" text-anchor="end">
    <text x="248" y="161">5</text>
    <text x="248" y="205">10</text>
    <text x="248" y="249">1024</text>
    <text x="248" y="293">70</text>
  </g>
  <g font-family="Helvetica" font-size="15" font-weight="bold" fill="#356596" text-anchor="end">
    <text x="310" y="161">10</text>
    <text x="310" y="205">20</text>
    <text x="310" y="249">4096</text>
    <text x="310" y="293">140</text>
  </g>
  <g fill="#d5dee5">
    <rect x="10" y="177" width="310" height="1"/>
    <rect x="10" y="221" width="310" height="1"/>
    <rect x="10" y="265" width="310" height="1"/>
  </g>

  <!-- section: What Premium changes -->
  <image x="0" y="310" width="320" height="26" xlink:href="ASSET:CategoryDivider"/>
  <text x="10" y="328" font-family="Helvetica" font-size="14" fill="#ffffff" fill-opacity="0.3">What Premium changes</text>
  <text x="10" y="327" font-family="Helvetica" font-size="14" fill="#697487">What Premium changes</text>
  <text x="248" y="327" font-family="Helvetica" font-size="11" font-weight="bold" fill="#697487" text-anchor="end">NOW</text>
  <text x="310" y="327" font-family="Helvetica" font-size="11" font-weight="bold" fill="#697487" text-anchor="end">PREMIUM</text>

  <g font-family="Helvetica" font-size="16" fill="#111111">
    <text x="10" y="363">Download speed</text>
    <text x="10" y="407">Upload size</text>
    <text x="10" y="451">Voice transcripts</text>
  </g>
  <g font-family="Helvetica" font-size="15" fill="#888888" text-anchor="end">
    <text x="248" y="363">1&#215;</text>
    <text x="248" y="407">2 GB</text>
    <text x="248" y="451">&#8212;</text>
  </g>
  <g font-family="Helvetica" font-size="15" font-weight="bold" fill="#356596" text-anchor="end">
    <text x="310" y="363">4&#215;</text>
    <text x="310" y="407">4 GB</text>
    <text x="310" y="451">&#10003;</text>
  </g>
  <g fill="#d5dee5">
    <rect x="10" y="379" width="310" height="1"/>
    <rect x="10" y="423" width="310" height="1"/>
    <rect x="10" y="467" width="310" height="1"/>
  </g>
  <text x="10" y="478" font-family="Helvetica" font-size="16" fill="#111111">Custom emoji</text>
  <text x="248" y="478" font-family="Helvetica" font-size="15" fill="#888888" text-anchor="end">&#8212;</text>
  <text x="310" y="478" font-family="Helvetica" font-size="15" fill="#b0b0b0" text-anchor="end">&#8212;</text>

  <!-- nav bar -->
  <rect x="0" y="20" width="320" height="44" fill="url(#nav)"/>
  <image x="0" y="20" width="320" height="44" xlink:href="ASSET:NavBarBackground"/>
  <image x="5" y="27" width="68" height="30" xlink:href="ASSET:BackButton"/>
  <text x="44" y="47" font-family="Helvetica" font-size="12" font-weight="bold" fill="#0e284d" fill-opacity="0.4" text-anchor="middle">Settings</text>
  <text x="44" y="46" font-family="Helvetica" font-size="12" font-weight="bold" fill="#ffffff" text-anchor="middle">Settings</text>
  <image x="263" y="27" width="52" height="30" xlink:href="ASSET:HeaderButton"/>
  <text x="289" y="47" font-family="Helvetica" font-size="12" font-weight="bold" fill="#0e284d" fill-opacity="0.4" text-anchor="middle">Redeem</text>
  <text x="289" y="46" font-family="Helvetica" font-size="12" font-weight="bold" fill="#ffffff" text-anchor="middle">Redeem</text>
  <text x="160" y="49" font-family="Helvetica" font-size="20" font-weight="bold" fill="#3d5c81" text-anchor="middle">Premium</text>
  <text x="160" y="48" font-family="Helvetica" font-size="20" font-weight="bold" fill="#ffffff" text-anchor="middle">Premium</text>

  <!-- status bar -->
  <rect x="0" y="0" width="320" height="20" fill="#000000"/>
  <text x="6" y="14" font-family="Helvetica" font-size="11" fill="#ffffff">&#9679;&#9679;&#9679;&#9675;&#9675;  Telegram</text>
  <text x="160" y="14" font-family="Helvetica" font-size="12" font-weight="bold" fill="#ffffff" text-anchor="middle">9:41</text>
  <text x="314" y="14" font-family="Helvetica" font-size="11" fill="#ffffff" text-anchor="end">86%</text>
</svg>
